<svg width="64" height="64" viewBox="0 0 64 64" fill="none" xmlns="http://www.w3.org/2000/svg">
<rect width="64" height="64" rx="16" fill="#C1521E"/>
<path d="M20.0001 8.66602H43.9999C46.3868 8.66602 48.6759 9.61423 50.3637 11.3021C52.0516 12.9899 52.9998 15.2791 52.9998 17.666V44.666C53.0151 46.6253 52.3109 48.5222 51.0206 49.9968C50.0989 51.0502 48.9239 51.8357 47.6192 52.2878C46.9302 52.5266 46.585 53.3974 47.0405 53.9669L48.7867 56.1496C49.2756 56.7607 48.8405 57.666 48.0579 57.666H39.5284C39.2005 57.666 38.8967 57.494 38.728 57.2129L36.2718 53.1192C36.1032 52.838 35.7994 52.666 35.4715 52.666H28.5285C28.2006 52.666 27.8968 52.838 27.7282 53.1192L25.272 57.2129C25.1033 57.494 24.7995 57.666 24.4716 57.666H15.9421C15.1595 57.666 14.7244 56.7607 15.2133 56.1496L16.9595 53.9669C17.415 53.3974 17.0698 52.5266 16.3808 52.2878C15.0761 51.8357 13.9011 51.0502 12.9794 49.9968C11.6891 48.5222 10.9849 46.6253 11.0002 44.666L11.0002 17.666C11.0002 15.2791 11.9484 12.9899 13.6363 11.3021C15.3241 9.61423 17.6132 8.66602 20.0001 8.66602Z" fill="white"/>
<path d="M18 19.666C18 18.6051 18.4214 17.5877 19.1716 16.8376C19.9217 16.0874 20.9391 15.666 22 15.666H42C43.0609 15.666 44.0783 16.0874 44.8284 16.8376C45.5786 17.5877 46 18.6051 46 19.666V35.666H18V19.666Z" fill="#C1521E"/>
<path d="M20 45.666C21.6569 45.666 23 44.3229 23 42.666C23 41.0092 21.6569 39.666 20 39.666C18.3431 39.666 17 41.0092 17 42.666C17 44.3229 18.3431 45.666 20 45.666Z" fill="#C1521E"/>
<path d="M44 45.666C45.6569 45.666 47 44.3229 47 42.666C47 41.0092 45.6569 39.666 44 39.666C42.3431 39.666 41 41.0092 41 42.666C41 44.3229 42.3431 45.666 44 45.666Z" fill="#C1521E"/>
<path d="M27 44.666C27 44.666 29 46.666 32 46.666C35 46.666 37 44.666 37 44.666" stroke="#C1521E" stroke-width="1.7069" stroke-linecap="round"/>
<path d="M36.1048 21.5756C35.6614 21.6106 35.2174 21.6383 34.7748 21.6848C34.6296 21.7 34.4848 21.7523 34.3462 21.8086C34.0117 21.9447 33.8434 22.2174 33.776 22.6229C33.547 23.9988 33.4623 25.393 33.3326 26.7818C33.2772 27.3763 33.19 27.9681 33.0988 28.5573C32.9914 29.2505 32.758 29.8975 32.4904 30.528C32.1305 31.3758 31.6835 32.1636 31.1396 32.8699C30.2473 34.0281 29.1723 34.8957 27.8726 35.3637C27.5603 35.4761 27.2304 35.5517 26.9042 35.5817C26.335 35.634 25.8418 35.4273 25.4816 34.8922C25.3038 34.6281 25.2748 34.3323 25.3432 34.0186C25.3974 33.7693 25.5066 33.5492 25.6345 33.3398C25.8475 32.9907 26.1116 32.695 26.3803 32.4031C26.7506 32.0003 27.1254 31.6023 27.4841 31.1864C28.4058 30.1174 29.1272 28.8912 29.6322 27.5079C29.9518 26.6327 30.144 25.7147 30.2647 24.7763C30.356 24.0664 30.3624 23.3536 30.3507 22.639C30.3495 22.5623 30.3434 22.4858 30.3406 22.4091C30.3321 22.1717 30.2198 22.0272 30.0283 21.9526C29.8193 21.871 29.6043 21.8715 29.3883 21.8899C28.938 21.9284 28.4863 21.9553 28.0377 22.0116C27.3884 22.0929 26.7395 22.1849 26.0936 22.2962C25.877 22.3335 25.665 22.4296 25.4601 22.5243C25.1709 22.6582 24.9862 22.9093 24.8745 23.2446C24.685 23.8136 24.6624 24.3904 24.7332 24.989C24.8798 26.2308 24.9449 27.48 24.9395 28.7336C24.936 29.5415 24.7936 30.3119 24.5418 31.0691C24.2695 31.888 23.9888 32.7015 23.6488 33.4863C23.3526 34.1691 23.0102 34.8208 22.5652 35.3953C22.069 36.0361 21.4806 36.5196 20.755 36.7675C20.3076 36.9203 19.8494 36.9108 19.3911 36.8726C19.095 36.8479 18.8011 36.8018 18.5248 36.6654C18.3678 36.5878 18.2256 36.4841 18.1283 36.3214C17.9847 36.0808 17.956 35.8128 18.0711 35.5559C18.1775 35.3188 18.3071 35.0915 18.4491 34.8795C18.7311 34.4592 19.044 34.065 19.3165 33.637C19.7174 33.0075 20.0252 32.3141 20.2971 31.6021C20.6039 30.7985 20.8776 29.9803 21.0063 29.1115C21.0599 28.7493 21.0989 28.381 21.1106 28.0142C21.1402 27.0848 21.1037 26.1566 21.038 25.2294C20.9826 24.4489 20.9357 23.6673 20.8984 22.8854C20.8677 22.2383 20.7528 21.6078 20.6531 20.9732C20.5999 20.6345 20.5576 20.2895 20.5507 19.9464C20.5392 19.3593 20.766 18.8912 21.1909 18.561C21.3738 18.4191 21.5696 18.2933 21.7711 18.1893C22.3065 17.9128 22.8482 17.946 23.3801 18.2045C23.6773 18.349 23.97 18.5071 24.2558 18.6783C24.4931 18.8203 24.7277 18.8634 24.9951 18.8117C26.0979 18.5993 27.2029 18.4016 28.3077 18.202C28.6205 18.1456 28.935 18.1015 29.2483 18.0506C29.3082 18.0409 29.3672 18.0234 29.4269 18.0121C29.6502 17.9704 29.7953 17.8423 29.8266 17.5706C29.8588 17.292 29.8578 17.0312 29.6231 16.8521C29.5448 16.7924 29.4672 16.7307 29.3939 16.6632C28.7388 16.0574 28.8873 14.9665 29.6737 14.6199C29.7858 14.5706 29.9059 14.5263 30.0246 14.5176C31.0795 14.4404 32.0965 14.6102 33.0444 15.1699C33.3996 15.3796 33.7038 15.6688 33.9813 16.0009C34.346 16.4373 34.3962 16.9259 34.2245 17.4706C34.1199 17.8022 34.1431 17.8458 34.4607 17.8653C34.7568 17.8836 35.0534 17.8937 35.3499 17.8985C36.6544 17.9202 37.9279 18.1665 39.1634 18.6341C40.1926 19.0235 41.2088 19.4581 42.2292 19.8768C42.4315 19.9598 42.6395 20.0384 42.8249 20.1586C43.2898 20.4607 43.5614 20.9398 43.6872 21.521C43.7433 21.7795 43.7534 22.051 43.7825 22.3169C43.7884 22.3699 43.789 22.4245 43.7859 22.478C43.7309 23.4854 43.8731 24.468 44.0736 25.4428C44.338 26.7277 44.4456 28.0322 44.4589 29.3489C44.4686 30.3024 44.553 31.2495 44.6375 32.1968C44.7077 32.9833 45.536 34.7667 45.4988 35.5587C45.4672 36.2306 45.2167 36.6859 44.8316 37.2185C44.3336 37.9072 42.8518 37.1576 42.2422 36.8194C41.9285 36.6454 41.6914 36.3871 41.5174 36.0439C41.2994 35.6139 41.1625 35.1492 41.0587 34.6717C40.7729 33.3543 40.7189 32.0185 40.8089 30.6686C40.8659 29.8104 40.8756 28.9511 40.7832 28.0925C40.7413 27.7045 40.728 27.3118 40.7122 26.9208C40.6895 26.3509 40.6204 25.79 40.4943 25.2381C40.3619 24.6579 40.2549 24.0721 40.215 23.4732C40.1946 23.1651 40.0841 22.9227 39.8677 22.7262C39.5034 22.3955 39.0936 22.1756 38.6573 22.0037C37.8294 21.6777 36.9721 21.6046 36.1042 21.576L36.1048 21.5756Z" fill="white"/>
<path d="M34.6229 34.8393C34.3093 34.8391 34.0266 34.7525 33.812 34.4692C33.5882 34.1738 33.5433 33.8318 33.6058 33.4618C33.6849 32.9936 33.8582 32.5654 34.0319 32.1353C34.1971 31.7266 34.3457 31.3087 34.4907 30.89C34.6006 30.5729 34.6287 30.2345 34.6259 29.8977C34.6212 29.2966 34.6042 28.6956 34.5851 28.0947C34.5725 27.6932 34.5642 27.2929 34.6336 26.8965C34.6508 26.7989 34.6742 26.7004 34.709 26.6095C34.8326 26.2858 35.0371 26.0988 35.3632 26.0996C35.6943 26.1005 35.994 26.2209 36.2813 26.3881C36.9083 26.7529 37.4628 27.2344 37.9594 27.7983C38.4142 28.3146 38.6389 28.9591 38.6948 29.6818C38.7133 29.9207 38.6719 30.1546 38.5983 30.377C38.3313 31.1819 38.0309 31.9676 37.5873 32.6729C37.103 33.4429 36.5101 34.0672 35.76 34.4889C35.372 34.7071 34.9586 34.8363 34.6225 34.8391L34.6229 34.8393Z" fill="white"/>
</svg>
